<svg height="512pt" viewBox="0 0 512 512" width="512pt" xmlns="http://www.w3.org/2000/svg">
    <path d="m491.183594 0h-248.777344c-11.480469 0-20.816406 9.339844-20.816406 20.816406v34.523438h-89.980469c-11.476563 0-20.816406 9.339844-20.816406 20.816406v34.523438h-89.976563c-11.476562 0-20.816406 9.339843-20.816406 20.816406v359.6875c0 11.476562 9.339844 20.816406 20.816406 20.816406h248.777344c11.476562 0 20.816406-9.339844 20.816406-20.816406v-34.523438h89.976563c11.480469 0 20.816406-9.339844 20.816406-20.816406v-34.523438h89.980469c11.476562 0 20.816406-9.335937 20.816406-20.816406v-359.6875c0-11.476562-9.339844-20.816406-20.816406-20.816406zm-220.773438 491.183594c0 .425781-.390625.816406-.816406.816406h-248.777344c-.425781 0-.816406-.390625-.816406-.816406v-359.6875c0-.425782.390625-.816406.816406-.816406h248.777344c.429688 0 .816406.390624.816406.816406zm110.796875-55.339844c0 .425781-.390625.816406-.816406.816406h-89.980469v-305.164062c0-11.476563-9.339844-20.816406-20.816406-20.816406h-138.800781v-34.523438c0-.425781.390625-.816406.816406-.816406h248.777344c.429687 0 .816406.390625.816406.816406v359.6875zm110.792969-55.339844c0 .425782-.390625.816406-.816406.816406h-89.976563v-305.164062c0-11.476562-9.339843-20.816406-20.816406-20.816406h-138.800781v-34.523438c0-.425781.390625-.816406.816406-.816406h248.777344c.425781 0 .816406.390625.816406.816406zm0 0"/>
    <path d="m455.484375 120.972656c-5.523437 0-10 4.480469-10 10v.476563c0 5.523437 4.476563 10 10 10s10-4.476563 10-10v-.476563c0-5.519531-4.476563-10-10-10zm0 0"/>
    <path d="m455.484375 50.453125c-5.523437 0-10 4.476563-10 10v41.4375c0 5.523437 4.476563 10 10 10s10-4.476563 10-10v-41.4375c0-5.523437-4.476563-10-10-10zm0 0"/>
    <path d="m53.242188 402.085938c-5.523438 0-10 4.476562-10 10v41.4375c0 5.523437 4.476562 10 10 10 5.523437 0 10-4.476563 10-10v-41.4375c0-5.523438-4.476563-10-10-10zm0 0"/>
    <path d="m53.242188 372.527344c-5.523438 0-10 4.476562-10 10v.476562c0 5.523438 4.476562 10 10 10 5.523437 0 10-4.476562 10-10v-.476562c0-5.523438-4.476563-10-10-10zm0 0"/>
    <path d="m344.691406 176.3125c-5.523437 0-10 4.480469-10 10v.476562c0 5.523438 4.476563 10 10 10 5.519532 0 10-4.476562 10-10v-.476562c0-5.519531-4.480468-10-10-10zm0 0"/>
    <path d="m344.691406 105.792969c-5.523437 0-10 4.476562-10 10v41.4375c0 5.523437 4.476563 10 10 10 5.519532 0 10-4.476563 10-10v-41.4375c0-5.523438-4.480468-10-10-10zm0 0"/>
</svg>