<svg xmlns="http://www.w3.org/2000/svg" viewBox="0 0 512 512">
	<path fill="#3c153b"
		  d="M488.735 464.618V249.971l-369.653-1.915v216.562c0 6.66 5.399 12.059 12.059 12.059h345.536c6.659 0 12.058-5.399 12.058-12.059z"/>
	<path fill="#8b1e3f"
		  d="M119.082 185.356v94.877l100.742 25.424 72.353.19L502 253.997v-77.278c0-18.346-17.381-33.219-38.822-33.219h-295.18c-27.016 0-48.916 18.74-48.916 41.856z"/>
	<path fill="#fff" d="M219.82 276.5h72.35v68.73h-72.35z"/>
	<path fill="#b7b7b7"
		  d="M252.33 276.5h39.843v68.73H252.33zM62.025 400.706h-3.76v65.971c0 5.523 4.477 10 10 10h30.971v-38.76c-.001-20.551-16.66-37.211-37.211-37.211z"/>
	<path fill="#fff"
		  d="M485.911 400.706h-35.936c-20.551 0-37.21 16.66-37.21 37.21v38.76h35.936v-38.76c0-20.55 16.659-37.21 37.21-37.21z"/>
	<path fill="#b7b7b7"
		  d="M488.735 466.677v-65.971h-2.824c-20.551 0-37.21 16.66-37.21 37.21v38.76h30.035c5.522.001 9.999-4.477 9.999-9.999z"/>
	<path d="M171.588 85.118c5.523 0 10-4.477 10-10V59.441c0-7.784 6.333-14.117 14.118-14.117H317.5c7.785 0 14.118 6.333 14.118 14.117v15.677c0 5.523 4.477 10 10 10s10-4.477 10-10V59.441c0-18.813-15.305-34.117-34.118-34.117H195.706c-18.813 0-34.118 15.305-34.118 34.117v15.677c0 5.523 4.477 10 10 10zM463.178 106.118H48.822C21.901 106.118 0 128.019 0 154.94v88.801c0 4.433 2.919 8.337 7.171 9.592l6.093 1.797v209.488c0 12.163 9.896 22.059 22.059 22.059h441.353c12.164 0 22.059-9.896 22.059-22.059V256.603l6.039-1.744a10 10 0 0 0 7.226-9.607V154.94c0-26.921-21.901-48.822-48.822-48.822zM20 154.94c0-15.893 12.93-28.822 28.822-28.822h40.413v34.618c0 5.523 4.477 10 10 10s10-4.477 10-10v-34.618h289.912v34.618c0 5.523 4.477 10 10 10s10-4.477 10-10v-34.618h44.031c15.893 0 28.822 12.93 28.822 28.822v82.791L302.176 292.55V276.5c0-5.523-4.477-10-10-10h-72.353c-5.523 0-10 4.477-10 10v15.75L20 236.265V154.94zm209.823 150.588V286.5h52.353v48.735h-52.353v-29.707zM33.265 464.618v-53.912h28.76c15.004 0 27.21 12.207 27.21 27.21v28.76H35.323a2.06 2.06 0 0 1-2.058-2.058zm443.411 2.058h-53.912v-28.76c0-15.004 12.207-27.21 27.21-27.21h28.76v53.912a2.059 2.059 0 0 1-2.058 2.058zm2.059-75.97h-28.76c-26.032 0-47.21 21.179-47.21 47.21v28.76h-293.53v-28.76c0-26.032-21.179-47.21-47.21-47.21h-28.76V261.029L209.824 313.1v32.135c0 5.523 4.477 10 10 10h72.353c5.523 0 10-4.477 10-10v-31.868l176.559-50.988v128.326h-.001z"/>
	<circle cx="409.15" cy="199.32" r="10"/>
	<circle cx="99.23" cy="199.32" r="10"/>
</svg>