<svg height="511pt" viewBox="0 -4 511.998 511" width="511pt" xmlns="http://www.w3.org/2000/svg">
    <path fill="#666666" d="m481.707031.5h-276.414062c-16.703125 0-30.292969 12.609375-30.292969 28.113281v144.914063c0 15.5 13.589844 28.113281 30.292969 28.113281h195.5l21.527343 38.75c1.761719 3.171875 5.109376 5.140625 8.742188 5.140625 3.628906 0 6.976562-1.96875 8.738281-5.140625l21.53125-38.75h20.371094c16.703125 0 30.292969-12.613281 30.292969-28.113281v-144.914063c.003906-15.503906-13.585938-28.113281-30.289063-28.113281zm10.292969 173.027344c0 4.398437-4.714844 8.113281-10.292969 8.113281h-26.261719c-3.628906 0-6.976562 1.96875-8.738281 5.144531l-15.644531 28.15625-15.640625-28.15625c-1.765625-3.175781-5.109375-5.144531-8.742187-5.144531h-201.386719c-5.578125 0-10.292969-3.714844-10.292969-8.113281v-144.914063c0-4.398437 4.714844-8.113281 10.292969-8.113281h276.414062c5.578125 0 10.292969 3.714844 10.292969 8.113281zm0 0"/>
    <path fill="#666666" d="m337.589844 235.363281h-305.183594c-17.867188 0-32.40625 13.457031-32.40625 30v160c0 16.539063 14.539062 30 32.40625 30h23.109375l24.0625 43.316407c1.765625 3.175781 5.109375 5.140624 8.742187 5.140624 3.632813 0 6.976563-1.96875 8.742188-5.140624l24.066406-43.316407h216.464844c17.867188 0 32.40625-13.460937 32.40625-30v-160c0-16.542969-14.539062-30-32.410156-30zm12.410156 190c0 5.421875-5.683594 10-12.40625 10h-222.351562c-3.628907 0-6.976563 1.96875-8.742188 5.140625l-18.179688 32.726563-18.179687-32.726563c-1.765625-3.171875-5.109375-5.140625-8.742187-5.140625h-28.992188c-6.722656 0-12.40625-4.578125-12.40625-10v-160c0-5.421875 5.683594-10 12.40625-10h305.1875c6.722656 0 12.40625 4.578125 12.40625 10zm0 0"/>
    <path fill="#666666" d="m316.125 72.261719h.472656c5.523438 0 10-4.476563 10-10 0-5.523438-4.476562-10-10-10h-.472656c-5.523438 0-10 4.476562-10 10 0 5.523437 4.476562 10 10 10zm0 0"/>
    <path fill="#666666" d="m227.4375 72.261719h59.601562c5.523438 0 10-4.476563 10-10 0-5.523438-4.476562-10-10-10h-59.601562c-5.523438 0-10 4.476562-10 10 0 5.523437 4.476562 10 10 10zm0 0"/>
    <path fill="#666666" d="m422.367188 92.261719h-194.929688c-5.523438 0-10 4.476562-10 10 0 5.523437 4.476562 10 10 10h194.929688c5.523437 0 10-4.476563 10-10 0-5.523438-4.476563-10-10-10zm0 0"/>
    <path fill="#666666" d="m395.113281 132.261719h-167.675781c-5.523438 0-10 4.476562-10 10 0 5.523437 4.476562 10 10 10h167.675781c5.523438 0 10-4.476563 10-10 0-5.523438-4.476562-10-10-10zm0 0"/>
    <path fill="#666666" d="m65.433594 309.363281h59.605468c5.519532 0 10-4.476562 10-10 0-5.519531-4.480468-10-10-10h-59.605468c-5.523438 0-10 4.480469-10 10 0 5.523438 4.476562 10 10 10zm0 0"/>
    <path fill="#666666" d="m154.121094 309.363281h.476562c5.523438 0 10-4.476562 10-10 0-5.519531-4.476562-10-10-10h-.476562c-5.523438 0-10 4.480469-10 10 0 5.523438 4.476562 10 10 10zm0 0"/>
    <path fill="#666666" d="m304.5625 329.363281h-239.128906c-5.523438 0-10 4.480469-10 10 0 5.523438 4.476562 10 10 10h239.128906c5.523438 0 10-4.476562 10-10 0-5.523437-4.476562-10-10-10zm0 0"/>
    <path fill="#666666" d="m271.128906 369.363281h-205.695312c-5.523438 0-10 4.480469-10 10 0 5.523438 4.476562 10 10 10h205.695312c5.523438 0 10-4.476562 10-10 0-5.523437-4.476562-10-10-10zm0 0"/>
</svg>