<svg height="512pt" viewBox="-45 0 512 512.00104" width="512pt" xmlns="http://www.w3.org/2000/svg">
    <path fill="#666666" d="m419.050781 126.863281-123.804687-123.804687c-1.957032-1.957032-4.617188-3.058594-7.386719-3.058594h-237.078125c-28 0-50.78125 22.78125-50.78125 50.785156v410.433594c0 28 22.78125 50.78125 50.785156 50.78125h320.546875c28 0 50.78125-22.78125 50.78125-50.78125v-326.964844c0-2.773437-1.101562-5.429687-3.0625-7.390625zm-120.738281-91.183593 88.125 88.125h-58.242188c-7.984374 0-15.488281-3.109376-21.132812-8.753907s-8.753906-13.148437-8.75-21.128906zm73.019531 455.421874h-320.550781c-16.476562 0-29.882812-13.40625-29.882812-29.882812v-410.433594c0-16.480468 13.40625-29.886718 29.882812-29.886718h226.632812v73.019531c-.003906 13.566406 5.28125 26.320312 14.871094 35.910156s22.34375 14.875 35.910156 14.875h73.019532v316.515625c0 16.476562-13.40625 29.882812-29.882813 29.882812zm0 0"/>
    <path fill="#666666" d="m230.148438 351.492188h-4.679688c-5.769531 0-10.445312 4.679687-10.445312 10.449218 0 5.769532 4.675781 10.449219 10.445312 10.449219h4.679688c5.769531 0 10.449218-4.679687 10.449218-10.449219 0-5.769531-4.679687-10.449218-10.449218-10.449218zm0 0"/>
    <path fill="#666666" d="m191.667969 351.492188h-101.492188c-5.773437 0-10.449219 4.679687-10.449219 10.449218 0 5.769532 4.675782 10.449219 10.449219 10.449219h101.492188c5.769531 0 10.445312-4.679687 10.445312-10.449219 0-5.769531-4.675781-10.449218-10.445312-10.449218zm0 0"/>
    <path fill="#666666" d="m331.9375 303.746094h-241.761719c-5.769531 0-10.449219 4.679687-10.449219 10.449218 0 5.769532 4.679688 10.449219 10.449219 10.449219h241.761719c5.769531 0 10.449219-4.679687 10.449219-10.449219 0-5.769531-4.679688-10.449218-10.449219-10.449218zm0 0"/>
    <path fill="#666666" d="m331.9375 256h-241.761719c-5.769531 0-10.449219 4.679688-10.449219 10.449219s4.679688 10.449219 10.449219 10.449219h241.761719c5.769531 0 10.449219-4.679688 10.449219-10.449219s-4.679688-10.449219-10.449219-10.449219zm0 0"/>
    <path fill="#666666" d="m331.9375 208.253906h-241.761719c-5.769531 0-10.449219 4.679688-10.449219 10.449219 0 5.773437 4.679688 10.449219 10.449219 10.449219h241.761719c5.769531 0 10.449219-4.675782 10.449219-10.449219 0-5.769531-4.679688-10.449219-10.449219-10.449219zm0 0"/>
</svg>