<?xml version="1.0"?>
<svg xmlns="http://www.w3.org/2000/svg" height="512px" viewBox="-6 0 512 512.00014" width="512px"><path d="m466.277344 129.179688c-.890625-.664063-2.085938-1.597657-3.117188-2.402344-7-5.457032-18.710937-14.589844-34.230468-21.84375-7.585938-3.546875-17.765626-4.09375-28.542969-4.675782-7.730469-.417968-15.726563-.847656-20.316407-2.453124-11.503906-4.027344-20.089843-9.207032-27.660156-13.773438-8.914062-5.375-16.609375-10.019531-25.890625-10.929688-7.835937-.765624-12.042969-15.640624-14.300781-23.632812l-.535156-1.882812c-.460938-1.597657-1.054688-4.875-1.625-8.046876-2.097656-11.609374-3.890625-20.21875-7.921875-25.351562-6.097657-7.769531-16.152344-10.75-25.011719-7.421875-7.71875 2.898437-15.675781 11.542969-14.929688 27.117187-.269531.949219-2.070312 3.554688-5.429687 5.144532-1.792969.851562-4.441406 1.589844-6.894531.277344-14.433594-7.710938-24.988282-2.011719-33.472656 2.570312-6.367188 3.4375-12.007813 6.492188-20.671876 5.996094.390626-1.902344.953126-4.125 1.394532-5.855469 1.753906-6.914063 3.746094-14.75 2.667968-22.265625-1.324218-9.226562-7.84375-16.695312-16.609374-19.023438-4.859376-1.289062-17.449219-2.628906-29.417969 12.742188-2.3125 2.96875-13.804688 2.464844-19.328125 2.226562-9.164063-.402343-17.824219-.785156-21.824219 6.890626-1.703125 3.269531-2.621094 8.609374 2.613281 15.539062.945313 1.480469 2.617188 5.066406 3.960938 8.425781-2.585938.929688-4.894532 2.105469-6.976563 3.167969-2.636719 1.339844-5.125 2.625-6.757812 2.558594-1.824219-.054688-4.550781-1.90625-7.679688-5.214844-9.253906-9.78125-26.492187-10.925781-37.8125-6.378906-9.355469 3.753906-14.910156 11.238281-14.855469 19.964844 0 5.546874 2.320313 9.695312 4.367188 13.351562 3.394531 6.066406 6.902344 12.335938-.644531 30.628906-2.59375 6.292969-.761719 12.472656.597656 17-1.042969.011719-2.351563-.015625-3.976563-.128906-17.453124-1.195312-32.792968 13.171875-40.25 27.941406-6.597656 13.066406-6.90625 25.671875-.960937 34.214844.035156.148438.074219.304688.113281.46875 1.105469 4.480469 3.410156 13.796875 10.722656 22.902344 4.488282 5.589844 11.535157 10.28125 20.957032 13.972656.007812.003906.011718.003906.019531.007812.972656.382813 1.964844.753907 2.988281 1.117188 5.457032 1.914062 12.605469 3.738281 15.496094 3.976562.621094.339844 1.835938 1.285157 2.664062 1.929688 4.953126 3.863281 16.546876 12.90625 32.714844-.628906 2.769532-2.316406 7.730469-6.476563 11.339844-8.726563.070312.875.121094 1.953125.121094 3.261719 0 19.882812 28.679687 29.023438 47.65625 35.074219 2.261718.71875 4.214844 1.339843 5.714844 1.863281 1.722656.597656 3.300781 1.136719 4.75 1.632812 1.015624.347657 1.957031.667969 2.839843.976563 2.3125 2.921875 4.835938 5.667969 7.558594 8.207031.074219.808594.152344 1.664063.234375 2.613282.300781 3.421874.671875 7.683593 1.324219 12.992187 1.566406 12.773437 12.628906 15.035156 17.949219 16.125 1.519531.3125 4.066406.832031 4.609374 1.253906.070313.105469.285157.609375.410157 1.625.363281 2.964844-.433594 10.335938-1.132813 16.835938-.753906 6.976562-1.53125 14.1875-1.507812 20.21875.015625 4.136719.0625 16.722656 10.417968 19.710937 7.617188 2.195313 9.476563 5.578125 12.292969 10.699219 3.289063 5.976563 7.796875 14.164063 20.675781 16.550781 1.671876.308594 2.5 2.84375 3.394532 10.425782.367187 3.097656.714844 6.023437 1.613281 8.734374 1.539063 4.640626 4.257813 7.085938 6.773437 8.371094-.828124 2.238282-2.796874 5.175782-6.015624 5.890625-5.148438 1.144531-11.273438 6.070313-23.9375 17.410157-1.597657 1.433593-2.980469 2.671874-3.871094 3.429687-5.515625 4.695313-8.007813 9.894531-7.414063 15.449219 1.003907 9.394531 9.691407 14.058594 19.753907 19.457031 8.488281 4.554687 18.109374 9.71875 23.453124 17.371094.277344.425781.890626 1.808593 1.300782 2.722656 2.113281 4.757813 5.652344 12.71875 14.34375 14.199219.882812.152344 1.746094.222656 2.59375.222656 7.351562 0 13.292968-5.316406 17.265625-9.527344 5.019531-5.3125 16.136719-17.992187 26.203125-31.132812 18.167968-23.722656 20.617187-32.710938 20.617187-38.375 0-16.175782 7.628907-31.25 19.4375-38.40625 13.496094-8.175782 20.121094-9.808594 30.15625-12.28125 5.558594-1.367188 11.859375-2.917969 20.335938-5.808594 6.457031-2.203125 13.359375-7.589844 20.511719-16.015625 3.574218-4.210937 3.058593-10.523437-1.152344-14.09375-4.210938-3.578125-10.523438-3.058594-14.09375 1.148437-5.316406 6.261719-9.539063 9.285157-11.71875 10.027344-7.652344 2.609375-13.503906 4.050782-18.667969 5.320313-10.53125 2.59375-19.625 4.835937-35.738281 14.597656-17.890625 10.84375-29.019532 32.039063-29.070313 55.347656-1.175781 7.941407-25.808593 39.464844-41.363281 55.941407-.425781.453124-.816406.847656-1.171875 1.191406-.074219-.171875-.148437-.335938-.214844-.484375-.898437-2.019531-1.828125-4.113281-3.164062-6.027344-8.089844-11.585937-20.464844-18.226563-30.40625-23.5625-2.15625-1.15625-4.773438-2.5625-6.832031-3.804687.6875-.609376 1.441406-1.285157 2.25-2.007813 3.46875-3.109375 12.507812-11.207031 15.664062-12.960937 13.976562-3.527344 22.292969-17.808594 21.316406-29.210938-.53125-6.191406-3.800781-11.011719-8.621094-13.25-.101562-.75-.195312-1.542969-.277343-2.234375-.949219-8.003906-2.917969-24.652344-19.613281-27.742187-3.449219-.636719-4.132813-1.6875-6.796876-6.527344-3.136718-5.703125-7.730468-14.050782-20.21875-18.910156-.015624-.277344-.023437-.578126-.03125-.886719l2.835938 1.820312c1.644531 1.058594 3.523438 1.585938 5.402344 1.585938s3.757812-.527344 5.402344-1.585938l186.507812-119.742187c2.863281-1.839844 4.597656-5.011719 4.597656-8.417969 0-3.402344-1.734375-6.574219-4.597656-8.414063l-186.503906-119.746093c-3.292969-2.113281-7.515625-2.113281-10.808594 0l-175.53125 112.703125c-3.480469-1.703125-6.5625-3.726563-8.402344-6.019532-4.546875-5.664062-6.019531-11.621093-6.898437-15.179687-.636719-2.585937-1.1875-4.816406-3.007813-6.957031-1.195312-1.410156-1.296875-6.808594 2.292969-13.917969 5.046875-9.996094 14.277344-17.453125 21.035156-17 7.902344.539063 17.667969.292969 23.070313-6.46875 5.199218-6.511719 2.9375-14.050781 1.441406-19.042969-.394531-1.324218-.980469-3.265625-1.066406-4.210937 10.929687-26.882813 3.714844-39.773438-.605469-47.496094-.695313-1.242187-1.632813-2.917969-1.808594-3.601563.472657-.578124 2.597657-1.972656 6.589844-2.421874 5.332031-.597657 9.921875.886718 11.535156 2.59375 16.664063 17.613281 30.042969 10.800781 38.039063 6.734374 3.476562-1.769531 5.707031-2.84375 7.644531-2.6875 4.503906.371094 8.644531-1.839843 10.789063-5.773437 2.492187-4.5625 1.949218-10.136719-1.925782-19.882813-.363281-.90625-.859375-2.097656-1.433594-3.40625 11.183594.425782 25.21875.210938 33.191407-10.035156 3.546875-4.554687 6.824219-6.144531 8.503906-5.699218.964844.257812 1.765625 1.296874 1.941406 2.53125.515625 3.59375-.953125 9.390624-2.253906 14.503906-2.316406 9.136718-5.824219 22.9375 5.820313 28.757812.78125.386719 1.609374.675782 2.464843.847656 19.207031 3.9375 31.15625-2.515624 39.878907-7.226562 8.019531-4.328125 9.984374-4.960938 14.546874-2.527344 8.710938 4.65625 19.34375 3.980469 28.441407-1.804687 8.5-5.40625 13.714843-14.078125 13.292969-22.089844-.257813-4.871094 1.074218-7.222656 1.976562-7.5625.53125-.199219 1.4375.070313 2.179688.960937 1.480468 2.476563 3.207031 12.03125 4.039062 16.644532.722656 4 1.347656 7.457031 2.089844 10.03125l.507812 1.785156c3.304688 11.6875 10.179688 36 31.59375 38.097656 4.777344.46875 10.398438 3.859375 17.511719 8.148438 7.988281 4.820312 17.929687 10.816406 31.382813 15.527344 7.277343 2.546874 16.71875 3.054687 25.847656 3.546874 8.007812.429688 17.082031.917969 21.148437 2.820313 13.476563 6.300781 24.070313 14.5625 30.402344 19.5 5.515625 4.300781 8.03125 6.261719 12.011719 6.453125 12.597656.601562 14.398437 4.316406 15.167968 5.902344 2.230469 4.601562 2.054688 13.074218 1.855469 22.882812-.0625 2.898438-.121093 5.886719-.128906 9.03125-2.269531 6.722656-21.050781 29.585938-26.152344 33.375-25.886719 19.238282-26.472656 30.019532-24.414062 44.277344.476562 3.289062.921875 6.398438.699219 10.128906-.328126 5.515625 3.871093 10.25 9.386718 10.582032 5.507813.324218 10.25-3.875 10.578125-9.386719.34375-5.769531-.328125-10.433594-.871093-14.183594-.691407-4.785156-.925782-6.824219.214843-9.292969 1.835938-3.976562 7.332031-9.382812 16.332031-16.070312 4.648438-3.453125 13.285157-13.355469 19.34375-21.09375 14.878907-19 14.878907-24.824219 14.878907-27.621094 0-3.203125.066406-6.320312.125-9.335938.449219-21.714843.949219-46.265624-33.609375-49.015624zm-299.785156 86.804687c0-4.21875.507812-8.320313 1.4375-12.257813 39.046874-3.980468 78.128906 7.324219 102.648437 29.675782-7.246094 20.972656-27.175781 36.085937-50.578125 36.085937-29.503906 0-53.507812-24-53.507812-53.503906zm11.398437-32.949219c9.804687-12.5 25.027344-20.554687 42.109375-20.554687 27.429688 0 50.09375 20.753906 53.144531 47.382812-25.558593-18.140625-60.066406-27.90625-95.253906-26.828125zm42.105469-74.910156 168 107.859375-168 107.863281-6.449219-4.144531c.75-7.148437 1.273437-13.320313.71875-17.839844-.765625-6.222656-3.125-10.433593-6.085937-13.335937 3.851562.625 7.796874.960937 11.820312.960937 34.527344 0 63.554688-23.9375 71.398438-56.085937.136718-.4375.234374-.882813.308593-1.332032 1.164063-5.179687 1.796875-10.558593 1.796875-16.085937 0-40.53125-32.976562-73.503906-73.503906-73.503906-31.707031 0-58.789062 20.179687-69.078125 48.371093-.160156.398438-.304687.800782-.414063 1.222657-2.589843 7.5-4.015624 15.539062-4.015624 23.910156 0 6.96875.996093 13.703125 2.816406 20.097656-5.472656-1.808593-11.632813-3.996093-16.957032-6.53125-9.121093-4.335937-10.785156-7.328125-10.980468-7.75 0-4.6875-.105469-18.320312-10.511719-23.179687-11.386719-5.316406-23.289063 4.652344-33.847656 13.492187-2.761719 2.3125-4.042969 2.5-4.027344 2.511719-.648437-.148438-2.429687-1.535156-3.492187-2.363281-1.582032-1.234375-3.445313-2.6875-5.667969-3.867188zm-154.898438-47.554688c-.003906-.007812-.003906-.015624-.003906-.023437 0 .011719.003906.019531.003906.019531zm0 0" fill="#FFFFFF"/><path d="m433.457031 306.65625c-5.332031-1.421875-10.816406 1.75-12.238281 7.085938l-.003906.003906c-1.421875 5.339844 1.75 10.8125 7.085937 12.238281.863281.230469 1.730469.339844 2.582031.339844 4.421876 0 8.464844-2.957031 9.660157-7.429688 1.421875-5.335937-1.75-10.816406-7.085938-12.238281zm0 0" fill="#FFFFFF"/></svg>
