<svg height="512pt" viewBox="0 0 512 512" width="512pt" xmlns="http://www.w3.org/2000/svg">
    <g fill-rule="evenodd">
        <path d="m390.925781 391.597656v-315.441406c0-2.800781-1.117187-5.460938-3.09375-7.441406-1.980469-1.980469-4.640625-3.09375-7.441406-3.09375h-68.722656v-44.804688c0-2.949218 1.175781-5.753906 3.261719-7.835937 2.082031-2.082031 4.886718-3.257813 7.835937-3.257813h168.417969c2.949218 0 5.753906 1.171875 7.835937 3.257813 2.085938 2.082031 3.261719 4.886719 3.261719 7.835937v359.6875c0 2.949219-1.175781 5.753906-3.261719 7.835938-2.082031 2.082031-4.886719 3.257812-7.835937 3.257812zm0 0"
              fill="#b7b7b7">
            <animate attributeName="fill" from="#fff" to="#b7b7b7" begin="0s" dur="0.5s" fill="freeze" repeatCount="1"/>
        </path>
        <path d="m280.210938 491.183594v-44.269532l-.945313-.054687c-.105469-.007813-.1875-.09375-.1875-.199219 0-.105468.082031-.195312.1875-.199218l.945313-.054688v-314.910156c0-2.820313-1.125-5.503906-3.121094-7.496094-1.992188-1.996094-4.675782-3.117188-7.496094-3.117188h-39.390625l-.179687.070313c-.023438.007813-.046876.011719-.070313.011719-.027344 0-.050781-.003906-.074219-.011719l-.175781-.070313h-99.730469c-2.820312 0-5.503906 1.125-7.496094 3.117188-1.992187 1.992188-3.117187 4.675781-3.117187 7.496094v359.6875c0 2.824218 1.125 5.503906 3.117187 7.5 1.992188 1.992187 4.675782 3.117187 7.496094 3.117187h139.621094c2.820312 0 5.503906-1.125 7.496094-3.117187 1.996094-1.996094 3.121094-4.679688 3.121094-7.5zm0 0"
              fill="#3c153b">
            <animate attributeName="fill" from="#fff" to="#3c153b" begin="0s" dur="0.5s" fill="freeze" repeatCount="1"/>
        </path>
        <path d="m195.429688 65.0625h184.960937c2.949219 0 5.75 1.175781 7.835937 3.257812 2.082032 2.082032 3.257813 4.886719 3.257813 7.835938v359.6875c0 2.949219-1.175781 5.753906-3.257813 7.835938-2.085937 2.085937-4.886718 3.257812-7.835937 3.257812h-100.257813v-315.441406c0-2.800782-1.117187-5.460938-3.097656-7.441406-1.980468-1.976563-4.640625-3.09375-7.441406-3.09375h-85.257812v-44.804688c0-2.949219 1.175781-5.753906 3.257812-7.835938 2.085938-2.082031 4.886719-3.257812 7.835938-3.257812zm0 0"
              fill="#8b1e3f">
            <animate attributeName="fill" from="#fff" to="#8b1e3f" begin="0s" dur="0.5s" fill="freeze" repeatCount="1"/>
        </path>
    </g>
    <path d="m491.183594 0h-248.777344c-11.480469 0-20.816406 9.339844-20.816406 20.816406v34.523438h-89.980469c-11.476563 0-20.816406 9.339844-20.816406 20.816406v34.523438h-89.976563c-11.476562 0-20.816406 9.339843-20.816406 20.816406v359.6875c0 11.476562 9.339844 20.816406 20.816406 20.816406h248.777344c11.476562 0 20.816406-9.339844 20.816406-20.816406v-34.523438h89.976563c11.480469 0 20.816406-9.339844 20.816406-20.816406v-34.523438h89.980469c11.476562 0 20.816406-9.335937 20.816406-20.816406v-359.6875c0-11.476562-9.339844-20.816406-20.816406-20.816406zm-220.773438 491.183594c0 .425781-.390625.816406-.816406.816406h-248.777344c-.425781 0-.816406-.390625-.816406-.816406v-359.6875c0-.425782.390625-.816406.816406-.816406h248.777344c.429688 0 .816406.390624.816406.816406zm110.796875-55.339844c0 .425781-.390625.816406-.816406.816406h-89.980469v-305.164062c0-11.476563-9.339844-20.816406-20.816406-20.816406h-138.800781v-34.523438c0-.425781.390625-.816406.816406-.816406h248.777344c.429687 0 .816406.390625.816406.816406v359.6875zm110.792969-55.339844c0 .425782-.390625.816406-.816406.816406h-89.976563v-305.164062c0-11.476562-9.339843-20.816406-20.816406-20.816406h-138.800781v-34.523438c0-.425781.390625-.816406.816406-.816406h248.777344c.425781 0 .816406.390625.816406.816406zm0 0"/>
    <path d="m455.484375 120.972656c-5.523437 0-10 4.480469-10 10v.476563c0 5.523437 4.476563 10 10 10s10-4.476563 10-10v-.476563c0-5.519531-4.476563-10-10-10zm0 0"/>
    <path d="m455.484375 50.453125c-5.523437 0-10 4.476563-10 10v41.4375c0 5.523437 4.476563 10 10 10s10-4.476563 10-10v-41.4375c0-5.523437-4.476563-10-10-10zm0 0"/>
    <path d="m53.242188 402.085938c-5.523438 0-10 4.476562-10 10v41.4375c0 5.523437 4.476562 10 10 10 5.523437 0 10-4.476563 10-10v-41.4375c0-5.523438-4.476563-10-10-10zm0 0"/>
    <path d="m53.242188 372.527344c-5.523438 0-10 4.476562-10 10v.476562c0 5.523438 4.476562 10 10 10 5.523437 0 10-4.476562 10-10v-.476562c0-5.523438-4.476563-10-10-10zm0 0"/>
    <path d="m344.691406 176.3125c-5.523437 0-10 4.480469-10 10v.476562c0 5.523438 4.476563 10 10 10 5.519532 0 10-4.476562 10-10v-.476562c0-5.519531-4.480468-10-10-10zm0 0"/>
    <path d="m344.691406 105.792969c-5.523437 0-10 4.476562-10 10v41.4375c0 5.523437 4.476563 10 10 10 5.519532 0 10-4.476563 10-10v-41.4375c0-5.523438-4.480468-10-10-10zm0 0"/>
</svg>