<svg height="512pt" viewBox="0 0 512 512" width="512pt" xmlns="http://www.w3.org/2000/svg">
    <path d="m417 254h-76.890625c24.703125 6.648438 42.890625 29.195312 42.890625 56 0 32.03125-25.96875 58-58 58h-288v2h380c32.03125 0 58-25.96875 58-58 0-32.035156-25.96875-58-58-58zm0 0"
          fill="#8b1e3f"/>
    <path d="m336 312c0-32.03125-25.96875-58-58-58h-241v116h241c32.03125 0 58-25.96875 58-58zm0 0" fill="#fff"/>
    <path d="m373.851562 254v-104.5h-182.953124v112l78.972656 21.925781zm0 0" fill="#3c153b"/>
    <path d="m116.894531 124.144531 145.382813 60.582031 206.578125-86.082031-145.382813-60.582031zm0 0"
          fill="#3c153b"/>
    <path d="m436 370h-106.097656c27.40625 8.023438 47.429687 33.332031 47.429687 63.332031 0 36.453125-29.546875 66-66 66h-301.332031v2.667969h426c36.449219 0 66-29.550781 66-66 0-36.453125-29.550781-66-66-66zm0 0"
          fill="#b7b7b7"/>
    <path d="m244 502h-234v-132h234c36.449219 0 66 29.546875 66 66 0 36.449219-29.550781 66-66 66zm0 0" fill="#edf2fa"/>
    <path d="m461.789062 195.929688c-1.867187 1.859374-2.929687 4.4375-2.929687 7.070312 0 2.628906 1.0625 5.207031 2.929687 7.066406 1.859376 1.863282 4.429688 2.933594 7.070313 2.933594 2.628906 0 5.199219-1.070312 7.070313-2.933594 1.859374-1.859375 2.917968-4.4375 2.917968-7.066406 0-2.640625-1.058594-5.210938-2.917968-7.070312-1.871094-1.859376-4.441407-2.929688-7.070313-2.929688-2.640625 0-5.210937 1.070312-7.070313 2.929688zm0 0"/>
    <path d="m460.617188 364.113281c14.894531-12.484375 24.382812-31.207031 24.382812-52.113281 0-37.496094-30.503906-68-68-68h-33.148438v-99.101562l75.003907-31.253907v49.355469c0 5.523438 4.480469 10 10 10 5.523437 0 10-4.476562 10-10v-64.355469c0-4.039062-2.425781-7.679687-6.152344-9.230469l-212.730469-88.644531c-2.460937-1.027343-5.230468-1.027343-7.691406 0l-212.730469 88.644531c-3.726562 1.550782-6.152343 5.191407-6.152343 9.230469 0 4.035157 2.425781 7.675781 6.152343 9.230469l88.851563 37.023438v99.101562h-91.402344c-5.523438 0-10 4.476562-10 10v106h-17c-5.523438 0-10 4.476562-10 10v132c0 5.523438 4.476562 10 10 10h426c41.90625 0 76-34.09375 76-76 0-33.292969-21.523438-61.632812-51.382812-71.886719zm4.382812-52.113281c0 26.46875-21.53125 48-48 48h-90.882812c12.28125-12.308594 19.882812-29.285156 19.882812-48 0-13.226562-3.757812-25.84375-10.738281-36.6875l39.980469-11.3125h41.757812c26.46875 0 48 21.53125 48 48zm-208.871094-291.167969 162.730469 67.8125h-162.730469c-5.523437 0-10 4.476563-10 10 0 5.523438 4.476563 10 10 10h162.730469l-162.730469 67.8125-186.734375-77.8125zm-3.847656 175.6875c1.230469.511719 2.539062.769531 3.847656.769531 1.304688 0 2.613282-.257812 3.84375-.769531l103.878906-43.289062v93.207031l-106.628906 30.175781-108.820312-30.214843v-93.167969zm-205.28125 125.480469h137c5.523438 0 10-4.476562 10-10s-4.476562-10-10-10h-137v-38h90.039062l117.535157 32.636719c.875.242187 1.773437.363281 2.675781.363281.914062 0 1.832031-.125 2.722656-.378906l54.777344-15.5c7.28125 8.632812 11.25 19.433594 11.25 30.878906 0 26.464844-21.53125 48-48 48h-231zm-27 170v-24h220c5.523438 0 10-4.476562 10-10s-4.476562-10-10-10h-220v-24h121c5.523438 0 10-4.476562 10-10s-4.476562-10-10-10h-121v-24h224c30.878906 0 56 25.121094 56 56s-25.121094 56-56 56zm416 0h-140.683594c15.160156-13.902344 24.683594-33.859375 24.683594-56s-9.523438-42.097656-24.683594-56h140.683594c30.878906 0 56 25.121094 56 56s-25.121094 56-56 56zm0 0"/>
    <path d="m187.671875 404c-2.644531 0-5.210937 1.070312-7.070313 2.929688-1.871093 1.859374-2.929687 4.441406-2.929687 7.070312s1.058594 5.210938 2.929687 7.070312c1.859376 1.859376 4.4375 2.929688 7.070313 2.929688 2.628906 0 5.207031-1.070312 7.066406-2.929688 1.859375-1.859374 2.933594-4.441406 2.933594-7.070312s-1.070313-5.210938-2.933594-7.070312c-1.859375-1.859376-4.4375-2.929688-7.066406-2.929688zm0 0"/>
</svg>