<svg height="512pt" viewBox="0 -77 512.001 512" width="512pt" xmlns="http://www.w3.org/2000/svg">
    <path d="m502 312.523438v-60.523438h-382v60.523438c0 19.511718 15.960938 35.476562 35.472656 35.476562h311.054688c19.507812 0 35.472656-15.964844 35.472656-35.476562zm0 0"
          fill="#3c153b" fill-rule="evenodd"/>
    <path d="m451.855469 10h-262.375c-13.28125 0-24.144531 11.953125-24.144531 26.558594v215.441406h310.664062v-215.441406c0-14.605469-10.867188-26.558594-24.144531-26.558594zm0 0"
          fill="#f1f1f1"/>
    <path d="m165.335938 60.023438v93.183593l17.113281 14.164063 49.863281-41.261719c6.261719-5.183594 16.511719-5.183594 22.773438 0l32.679687 27.039063v-93.125zm0 0"
          fill="#3c153b"/>
    <g fill="#fff">
        <path d="m87.765625 60.023438v120.738281l44.050781-36.445313c6.261719-5.183594 16.511719-5.183594 22.769532 0l10.75 8.890625v-93.183593zm0 0"/>
        <path d="m268.53125 137.238281-13.445312-11.128906c-6.261719-5.183594-16.511719-5.183594-22.773438 0l-25.03125 20.710937 24.835938 20.550782zm0 0"/>
        <path d="m168.035156 155.441406-13.449218-11.125c-6.261719-5.183594-16.511719-5.183594-22.769532 0l-44.050781 36.445313v19.210937h49.667969v-19.210937zm0 0"/>
    </g>
    <path d="m268.53125 137.238281-36.414062 30.132813-24.835938-20.546875-24.832031 20.546875-14.414063-11.929688-30.605468 25.324219v19.210937h150.335937v-46.828124zm0 0"
          fill="#8b1e3f"/>
    <path d="m190.933594 120.613281c10.269531 0 18.640625-8.371093 18.640625-18.636719 0-10.265624-8.371094-18.636718-18.640625-18.636718-10.265625 0-18.636719 8.371094-18.636719 18.636718 0 10.265626 8.371094 18.636719 18.636719 18.636719zm0 0"
          fill="#f1f1f1" fill-rule="evenodd"/>
    <path d="m502 242h-16v-205.441406c0-20.15625-15.316406-36.558594-34.148438-36.558594h-391.707031c-18.824219 0-34.144531 16.398438-34.144531 36.558594v205.441406h-16c-5.523438 0-10 4.476562-10 10v60.523438c0 25.074218 20.398438 45.476562 45.476562 45.476562h421.050782c25.074218 0 45.472656-20.398438 45.472656-45.476562v-60.523438c0-5.523438-4.476562-10-10-10zm-456-205.441406c0-8.976563 6.480469-16.558594 14.148438-16.558594h391.707031c7.667969 0 14.144531 7.582031 14.144531 16.558594v205.441406h-419.996094v-205.441406zm446 275.964844c0 14.046874-11.429688 25.476562-25.476562 25.476562h-421.046876c-14.046874 0-25.476562-11.429688-25.476562-25.476562v-50.523438h472zm0 0"/>
    <path d="m190.933594 130.613281c15.792968 0 28.640625-12.84375 28.640625-28.636719 0-15.789062-12.847657-28.636718-28.640625-28.636718-15.789063 0-28.636719 12.847656-28.636719 28.636718 0 15.792969 12.847656 28.636719 28.636719 28.636719zm0-37.273437c4.765625 0 8.640625 3.875 8.640625 8.640625 0 4.761719-3.875 8.636719-8.640625 8.636719-4.761719 0-8.636719-3.875-8.636719-8.636719 0-4.765625 3.875-8.640625 8.636719-8.640625zm0 0"/>
    <path d="m324.769531 85.273438h.472657c5.523437 0 10-4.480469 10-10 0-5.523438-4.476563-10-10-10h-.472657c-5.523437 0-10 4.476562-10 10 0 5.519531 4.476563 10 10 10zm0 0"/>
    <path d="m354.328125 85.273438h68.9375c5.519531 0 10-4.480469 10-10 0-5.523438-4.480469-10-10-10h-68.9375c-5.523437 0-10 4.476562-10 10 0 5.519531 4.476563 10 10 10zm0 0"/>
    <path d="m424.234375 98.769531h-100.4375c-5.519531 0-10 4.476563-10 10 0 5.523438 4.480469 10 10 10h100.4375c5.523437 0 10-4.476562 10-10 0-5.523437-4.476563-10-10-10zm0 0"/>
    <path d="m424.234375 133.769531h-100.4375c-5.519531 0-10 4.476563-10 10 0 5.523438 4.480469 10 10 10h100.4375c5.523437 0 10-4.476562 10-10 0-5.523437-4.476563-10-10-10zm0 0"/>
    <path d="m424.234375 168.769531h-100.4375c-5.519531 0-10 4.476563-10 10 0 5.523438 4.480469 10 10 10h100.4375c5.523437 0 10-4.476562 10-10 0-5.523437-4.476563-10-10-10zm0 0"/>
    <path d="m297.765625 153.164062v-93.140624c0-5.519532-4.480469-10-10-10h-200c-5.523437 0-10 4.480468-10 10v120.753906.007812 19.191406c0 5.519532 4.476563 10 10 10h200c5.519531 0 10-4.480468 10-10zm-20-83.140624v61.871093l-16.300781-13.488281c-9.960938-8.246094-25.566406-8.242188-35.527344 0l-43.484375 35.984375-21.488281-17.777344c-9.960938-8.246093-25.566406-8.246093-35.523438 0l-27.675781 22.898438v-89.488281zm-180 119.953124v-4.507812l40.425781-33.449219c2.574219-2.128906 7.445313-2.132812 10.019532.003907l27.863281 23.054687c3.699219 3.058594 9.050781 3.058594 12.75-.003906l49.863281-41.257813c2.574219-2.132812 7.449219-2.132812 10.023438 0l29.054687 24.039063v32.121093zm0 0"/>
    <path d="m220.5 308.070312h.476562c5.523438 0 10-4.480468 10-10 0-5.523437-4.476562-10-10-10h-.476562c-5.519531 0-10 4.476563-10 10 0 5.523438 4.480469 10 10 10zm0 0"/>
    <path d="m250.0625 308.070312h41.4375c5.519531 0 10-4.480468 10-10 0-5.523437-4.480469-10-10-10h-41.4375c-5.523438 0-10 4.476563-10 10 0 5.523438 4.476562 10 10 10zm0 0"/>
</svg>